<svg id="Layer_1" width="168" height="48" data-name="Layer 1" xmlns="http://www.w3.org/2000/svg" viewBox="0 0 595.28 841.89"><defs><style>.cls-1{fill:#231f20;}.cls-2{fill:#fff;}</style></defs><rect class="cls-1" width="595.28" height="841.89"/><path class="cls-2" d="M218.79,572.32a1.81,1.81,0,0,1,1,.62,1.11,1.11,0,0,1,.25,1c0,.1-.08.62-.25,1.58s-.43,2.23-.79,3.78-.83,3.32-1.41,5.26-1.24,3.95-2,6a51.25,51.25,0,0,1-3.13,6.63,30.17,30.17,0,0,1-3.57,5q-4.89,5.61-11,5.61a9,9,0,0,1-7.28-3.09,12.63,12.63,0,0,1-2.44-5.55,34.08,34.08,0,0,1-.44-8.64,89.94,89.94,0,0,1,1-9.21c.5-3.27,1-6.53,1.62-9.8s1-6.1,1.47-9a78.27,78.27,0,0,0,.9-8q.51-7.77-1.65-10.36a3.9,3.9,0,0,0-3.6-1.55,10.15,10.15,0,0,0-4.18,1.55,20.47,20.47,0,0,0-3.89,3.13,28.32,28.32,0,0,0-2.73,3.13,65.84,65.84,0,0,0-4.61,7.63,105.76,105.76,0,0,0-4.54,10q-1.8,4.53-3.24,8.93t-2.48,8q-1,3.57-1.62,6c-.39,1.61-.63,2.6-.72,3a3.2,3.2,0,0,1-1.15,1.62,7.92,7.92,0,0,1-2.2,1.22,9.63,9.63,0,0,1-2.59.58,5.87,5.87,0,0,1-2.38-.25,2.89,2.89,0,0,1-1.58-1.26,3,3,0,0,1-.11-2.42c.67-3.07,1.24-5.86,1.69-8.38s.91-5.39,1.37-8.61.83-6.55,1.12-10q1-12.09-.44-19.65a19.51,19.51,0,0,0-2.52-7.27,4.77,4.77,0,0,0-3.6-2.42,6.77,6.77,0,0,0-4.42,1.8,26.89,26.89,0,0,0-4.94,5.44,57.35,57.35,0,0,0-4.93,8.68,91.85,91.85,0,0,0-4.35,11.41q-1.8,5.61-3.06,10.91c-.84,3.52-1.53,6.67-2.06,9.43s-.91,5-1.15,6.73-.36,2.66-.36,2.81a2.75,2.75,0,0,1-1.73,2,9.66,9.66,0,0,1-3.42,1,7,7,0,0,1-3.38-.36,2.24,2.24,0,0,1-1.55-2.3s-.05-.72-.14-2-.22-3-.36-5.22-.3-4.7-.47-7.56-.3-5.87-.4-9q-.14-5.12-.18-9.51c0-2.92,0-5.64.11-8.13l-2.63.86c-.88.29-1.76.55-2.62.79-2.84.87-5.52,1.75-8.07,2.67A33.4,33.4,0,0,0,90.05,561a13.73,13.73,0,0,0-4.71,4.71,12.18,12.18,0,0,0-1.48,6.09,1.39,1.39,0,0,1-.43,1,1.4,1.4,0,0,1-2,0,1.39,1.39,0,0,1-.43-1q0-8.36,7.49-13.25A34.93,34.93,0,0,1,95.81,555q4.11-1.44,8.28-2.73c1.06-.34,2.11-.66,3.17-1s2.09-.65,3.1-1q.57-9,1.93-13.32a13.53,13.53,0,0,1,3.57-5.69,10.23,10.23,0,0,1,5-2.45,8.3,8.3,0,0,1,4.17.33,6.9,6.9,0,0,1,3.17,2.19,10.73,10.73,0,0,1,.76,1.3,6.16,6.16,0,0,1,.54,1.91,10,10,0,0,1-.07,2.59,13.15,13.15,0,0,1-1,3.28,15.71,15.71,0,0,1-3.28,4.86,24.15,24.15,0,0,1-4.71,3.63c-.15,2.55-.24,5.26-.29,8.14s0,5.77,0,8.67.16,5.78.26,8.61.21,5.45.36,7.85c.53-2.69,1.17-5.61,1.94-8.75s1.69-6.37,2.74-9.69A96.07,96.07,0,0,1,130,551.84a56.88,56.88,0,0,1,5.19-9q7.14-9.93,16.08-9.93a9.64,9.64,0,0,1,8,3.89q6.7,8.41,4,33.91a2.06,2.06,0,0,0-.08.65c.24-.68.5-1.36.76-2.06s.54-1.38.83-2q5.25-13.46,11-20.09T188,540a15.63,15.63,0,0,1,9.54,2q4,2.4,5,8a38,38,0,0,1-.22,10.62q-.85,6.09-2.09,12.86-1,5.32-1.8,10.51a73.09,73.09,0,0,0-.86,9.57,21.43,21.43,0,0,0,1,7.13,5.43,5.43,0,0,0,1.69,2.7,2.38,2.38,0,0,0,2,.43,5.42,5.42,0,0,0,2.16-1.18,18,18,0,0,0,2.19-2.24,35.89,35.89,0,0,0,6.12-10.8c.77-2,1.43-3.91,2-5.83s1-3.63,1.33-5.15.68-3.2,1-5.07a1.67,1.67,0,0,1,.61-.94A1.42,1.42,0,0,1,218.79,572.32ZM125.84,539.2a8,8,0,0,0,.93-3.88c-.09-1-.38-1.62-.86-1.84s-1.08,0-1.8.68a8.82,8.82,0,0,0-1.94,3.6,19.85,19.85,0,0,0-.83,3.32c-.22,1.24-.4,2.61-.54,4.1a19.55,19.55,0,0,0,3-2.7A12.79,12.79,0,0,0,125.84,539.2Z"/><path class="cls-2" d="M244.71,572.54a1.31,1.31,0,0,1,.72.83,1.52,1.52,0,0,1-.15,1.11q-2.09,4.11-4.35,8.07a70.75,70.75,0,0,1-4.57,7.05c-.68.82-1.37,1.64-2.09,2.45a15.49,15.49,0,0,1-2.38,2.2,13.75,13.75,0,0,1-2.77,1.62,7.89,7.89,0,0,1-3.2.65,6.22,6.22,0,0,1-4.54-2.06,15.82,15.82,0,0,1-3.38-5.94,33.85,33.85,0,0,1-1.8-10.29,26.79,26.79,0,0,1,1.8-10.51,17,17,0,0,1,1.58-2.92,8.89,8.89,0,0,1,2-2.12,10,10,0,0,1,4.75-2.16,7.52,7.52,0,0,1,4.46.57,5.69,5.69,0,0,1,2.27,2,5.2,5.2,0,0,1,.83,2.92q0,4.17-7.85,7.63c.05,1.15.12,2.53.22,4.14s.22,3.2.39,4.79a31.74,31.74,0,0,0,.76,4.39,7,7,0,0,0,1.37,3,2,2,0,0,0,2.12.65c.84-.22,1.88-1.12,3.13-2.7a69.05,69.05,0,0,0,4.43-6.88q2.19-3.86,4.28-7.81a1.38,1.38,0,0,1,2-.65Zm-18-2.38a12.93,12.93,0,0,0,2.3-1.4,8.35,8.35,0,0,0,1.3-1.22,3.35,3.35,0,0,0,.57-.94A1.88,1.88,0,0,0,231,566a2.17,2.17,0,0,0-.11-1c-.07-.08-.3,0-.68.1C228.65,565.8,227.48,567.48,226.71,570.16Z"/><path class="cls-2" d="M303.75,572.18a1.36,1.36,0,0,1,.93,1.8q-.93,2.88-1.8,5.22c-.57,1.56-1.27,3.32-2.08,5.29s-1.71,4-2.67,6a63.66,63.66,0,0,1-6.77,11.45q-1,1.22-2,2.19a19,19,0,0,1-1.9,1.69.22.22,0,0,0-.15.08,7.89,7.89,0,0,1-4.61,1.65,5.24,5.24,0,0,1-4.39-1.94,6,6,0,0,1-1.26-3.06,17.49,17.49,0,0,1,0-4.11,36.81,36.81,0,0,1,.79-4.82q.57-2.55,1.22-5.22c.38-1.49.73-2.92,1.05-4.28a37.1,37.1,0,0,0,.68-3.86c.05-.28.1-.69.14-1.22a8.77,8.77,0,0,0,0-1.62,3.39,3.39,0,0,0-.39-1.4,1.24,1.24,0,0,0-1.19-.58,2.36,2.36,0,0,0-.86.25,5,5,0,0,0-1.48,1.26,21.74,21.74,0,0,0-2.09,3,36.85,36.85,0,0,0-2.55,5.4c-.53,1.3-1,2.59-1.48,3.86s-.84,2.4-1.15,3.38-.64,2.1-1,3.35a2.11,2.11,0,0,1-1.05,1,7.2,7.2,0,0,1-2,.64,11.06,11.06,0,0,1-2.45.18,9.69,9.69,0,0,1-2.31-.32,4.92,4.92,0,0,1-1.69-.79,1.25,1.25,0,0,1-.5-1.3c.19-1.15.34-2.22.47-3.2s.24-2.11.36-3.39.22-2.62.32-4.06c.05-1,.11-2.06.18-3.28s.11-2.42.11-3.6,0-2.24-.11-3.2a6.48,6.48,0,0,0-.4-2.09c-.19-.43-.45-.51-.79-.22a7.08,7.08,0,0,0-1.29,2.38,66.52,66.52,0,0,0-3.35,10.11q-1.26,5.16-2.77,10.34c-.15.53-.75.92-1.8,1.18a12.2,12.2,0,0,1-3.42.33,13.19,13.19,0,0,1-3.35-.54c-1-.31-1.51-.76-1.51-1.33-.1-2.79-.12-5.5-.08-8.14s.11-5,.18-7,.21-4.31.4-6.8c0-.72.53-1.24,1.58-1.55a9.21,9.21,0,0,1,6.88.86,2.88,2.88,0,0,1,1.55,2.63s0,.78-.08,2.2-.12,3.54-.21,6.37c.53-1.73,1-3.42,1.58-5.08s1.11-3.2,1.73-4.64a24.27,24.27,0,0,1,3.39-6.27,6.32,6.32,0,0,1,5-2.8,5.53,5.53,0,0,1,4.47,2.08,9.53,9.53,0,0,1,1.62,3.17,28.87,28.87,0,0,1,1,4.61c.09,1.15.16,2.4.18,3.74s0,2.79-.11,4.32c.53-1.19,1.07-2.29,1.62-3.27s1.09-1.86,1.62-2.63a9.78,9.78,0,0,1,3.28-2.88,12.3,12.3,0,0,1,4.14-1.4,10.85,10.85,0,0,1,4.25.18,8.08,8.08,0,0,1,3.6,1.87A7.39,7.39,0,0,1,291,580a21.52,21.52,0,0,1-.61,4.86q-.61,2.63-1.4,5.58c-.15.62-.35,1.4-.61,2.34s-.51,1.9-.72,2.91-.4,2-.54,2.88a7.5,7.5,0,0,0-.11,2.13q.11.75.57.75c.32,0,.81-.43,1.48-1.29a39.78,39.78,0,0,0,3.2-4.68c1.08-1.83,2.17-3.89,3.28-6.2q1.36-3,2.56-5.9t2-5.15q.86-2.27,1.8-5.07a1.42,1.42,0,0,1,.72-.83A1.48,1.48,0,0,1,303.75,572.18Z"/><path class="cls-2" d="M324.27,572.54a1.31,1.31,0,0,1,.72.83,1.57,1.57,0,0,1-.15,1.11q-2.08,4.11-4.35,8.07a72.58,72.58,0,0,1-4.57,7.05c-.68.82-1.37,1.64-2.09,2.45a16,16,0,0,1-2.38,2.2,13.75,13.75,0,0,1-2.77,1.62,7.94,7.94,0,0,1-3.21.65,6.2,6.2,0,0,1-4.53-2.06,15.83,15.83,0,0,1-3.39-5.94,34.47,34.47,0,0,1-1.8-10.29,27.16,27.16,0,0,1,1.8-10.51,17,17,0,0,1,1.59-2.92,8.85,8.85,0,0,1,2-2.12,10.06,10.06,0,0,1,4.76-2.16,7.53,7.53,0,0,1,4.46.57,5.69,5.69,0,0,1,2.27,2,5.2,5.2,0,0,1,.83,2.92q0,4.17-7.85,7.63.08,1.73.21,4.14c.1,1.61.23,3.2.4,4.79a31.74,31.74,0,0,0,.76,4.39,7.13,7.13,0,0,0,1.36,3,2,2,0,0,0,2.13.65c.84-.22,1.88-1.12,3.13-2.7A70.89,70.89,0,0,0,318,581q2.19-3.86,4.28-7.81a1.4,1.4,0,0,1,.83-.76A1.44,1.44,0,0,1,324.27,572.54Zm-18-2.38a13.31,13.31,0,0,0,2.3-1.4,8.35,8.35,0,0,0,1.3-1.22,3.61,3.61,0,0,0,.57-.94,1.88,1.88,0,0,0,.15-.61,2.17,2.17,0,0,0-.11-1c-.07-.08-.3,0-.69.1C308.21,565.8,307,567.48,306.27,570.16Z"/><path class="cls-2" d="M369.12,573.84a15.55,15.55,0,0,1-3.53,6.51,46.68,46.68,0,0,1-5.61,5.22,18.54,18.54,0,0,1,3.35,5,16.75,16.75,0,0,1,1.33,6.66,15.12,15.12,0,0,1-2.16,8.06,14.09,14.09,0,0,1-5.19,5.18,13.44,13.44,0,0,1-6.69,1.88,8.42,8.42,0,0,1-5.91-2.2,7.79,7.79,0,0,1-2.37-6,16.83,16.83,0,0,1,4.17-10.95,19.38,19.38,0,0,1,1.73-1.9c.63-.6,1.27-1.19,1.95-1.77q-.94-.79-2-1.62l-2.2-1.76q-2.52-1.95-5.15-4.18a30.07,30.07,0,0,1-4.79-5.18,27.75,27.75,0,0,1-3.56-6.73,25.2,25.2,0,0,1-1.4-8.82,12.29,12.29,0,0,1,1.29-5.69,9.67,9.67,0,0,1,1.59-2.31,11.18,11.18,0,0,1,2-1.72,8,8,0,0,1,4.25-1.23,8.17,8.17,0,0,1,4.46.83,6.27,6.27,0,0,1,2.6,2.7,10.79,10.79,0,0,1,1,4,20,20,0,0,1-.18,4.61,31.52,31.52,0,0,1-3.46,10,24,24,0,0,0,3.82,3.92q2.16,1.77,4.46,3.42c.82.62,1.65,1.25,2.49,1.87s1.64,1.27,2.41,1.95a46.29,46.29,0,0,0,5.26-4.76,13,13,0,0,0,3.16-5.68,1.31,1.31,0,0,1,.69-.87,1.49,1.49,0,0,1,1.11-.14,1.32,1.32,0,0,1,.87.65A1.39,1.39,0,0,1,369.12,573.84ZM345.29,562a19,19,0,0,0,.29-3.86,8.1,8.1,0,0,0-.58-2.91,3.71,3.71,0,0,0-.83-1.05c-.31-.26-.71-.22-1.18.11-.1.1-.26.27-.47.51a3.44,3.44,0,0,0-.61,1.15,11.82,11.82,0,0,0-.51,2.09,20.72,20.72,0,0,0-.21,3.24,20.18,20.18,0,0,0,.46,4.53,20.9,20.9,0,0,0,1.26,3.75,33.2,33.2,0,0,0,1.48-3.78A24.34,24.34,0,0,0,345.29,562Zm6.91,29.66a27.59,27.59,0,0,0-5,5.51,12.27,12.27,0,0,0-2,7,5.56,5.56,0,0,0,.68,3.24,1.71,1.71,0,0,0,1.73.68,4.76,4.76,0,0,0,2.27-1.29,15.47,15.47,0,0,0,2.27-2.67,16,16,0,0,0,1.72-3.38,10,10,0,0,0,.69-3.49,7.45,7.45,0,0,0-.61-3A9.48,9.48,0,0,0,352.2,591.62Z"/><path class="cls-2" d="M402.67,572.54a1.67,1.67,0,0,1,.94.61,1.19,1.19,0,0,1,.22,1.05,59.44,59.44,0,0,1-4.58,15.69,32,32,0,0,1-7.88,10.66,28.29,28.29,0,0,1-7.67,4.82,67.22,67.22,0,0,1-7.88,2.74l-.22,1.37q-1.52,9-4.61,13.53a24.6,24.6,0,0,1-5.94,6.41,10.58,10.58,0,0,1-6.15,2.23,2.41,2.41,0,0,1-.4,0,1.61,1.61,0,0,0-.39,0,6.12,6.12,0,0,1-3.32-1.26,7.36,7.36,0,0,1-2.23-2.92,9.24,9.24,0,0,1-.36-6,17,17,0,0,1,3.53-6.84,17.64,17.64,0,0,1,4.54-4,29,29,0,0,1,5.4-2.52c.33-2.16.58-4.47.75-6.91s.25-5.09.25-7.92c0-2.6-.05-5-.14-7.35s-.2-4.33-.32-6.08-.28-3.66-.47-5.73c0-.72.49-1.41,1.47-2.08a8.37,8.37,0,0,1,3.32-1.34A6.34,6.34,0,0,1,374,571a3,3,0,0,1,1.8,2.77s.07.69.21,1.91.26,2.85.36,4.86a36.83,36.83,0,0,1,1.33-3.71,24.14,24.14,0,0,1,1.77-3.34,14.09,14.09,0,0,1,1.69-2.38,18.26,18.26,0,0,1,1.84-1.8,6.78,6.78,0,0,1,4.17-1.73,7,7,0,0,1,6.55,4.11q1.95,3.45,1.95,9.43a26,26,0,0,1-.65,6,16.13,16.13,0,0,1-1.94,4.83,9.84,9.84,0,0,1-2.88,3,6.26,6.26,0,0,1-3.46,1.08,8,8,0,0,1-3.42-.72,11.39,11.39,0,0,1-2.77-1.8,14.84,14.84,0,0,1-2.16-2.34c-.63-.84-1.15-1.62-1.59-2.34v4.47c0,2.16,0,4.21-.14,6.15s-.24,3.81-.43,5.58a50.18,50.18,0,0,0,7.88-3,24.65,24.65,0,0,0,7.13-5.22,32,32,0,0,0,5.83-8.89,56,56,0,0,0,4-14.15,1.83,1.83,0,0,1,.61-1A1.11,1.11,0,0,1,402.67,572.54ZM358,616.46a13.82,13.82,0,0,0-1.94,3.2,13.4,13.4,0,0,0-.94,3.14,5.35,5.35,0,0,0,.08,2.37c.19.62.54,1,1,1a3.42,3.42,0,0,0,2.05-1,17.67,17.67,0,0,0,3-3.67,28.37,28.37,0,0,0,3.74-10,22,22,0,0,0-3.85,2.05A14.33,14.33,0,0,0,358,616.46ZM381.87,575a22.75,22.75,0,0,0-2.31,4.86,31.29,31.29,0,0,0-1.37,5.65q1.23,3.24,2.52,4.21a1.84,1.84,0,0,0,2.38.18,5.78,5.78,0,0,0,1.76-3.09,20.11,20.11,0,0,0,.69-5.69,28.92,28.92,0,0,0-.22-3.35,16.35,16.35,0,0,0-.65-3.24c-.28-.89-.66-1.38-1.11-1.48S382.54,573.6,381.87,575Z"/><path class="cls-2" d="M439.46,572.18a1.47,1.47,0,0,1,.91.65,1.32,1.32,0,0,1,.17,1.08,14.09,14.09,0,0,1-.36,1.47c-.24.89-.56,2-1,3.46s-.91,3-1.51,4.86-1.28,3.67-2.05,5.54c-.43,1.11-1,2.51-1.77,4.22a32.38,32.38,0,0,1-2.7,5,20.55,20.55,0,0,1-3.52,4.14,6.33,6.33,0,0,1-4.32,1.73,5.13,5.13,0,0,1-4.4-2.37c-1.24-1.83-1.94-4.71-2.08-8.64a56.91,56.91,0,0,1,.43-8.79c-.58,1.06-1.26,2.2-2.05,3.42a22.83,22.83,0,0,1-2.7,3.39,14,14,0,0,1-3.39,2.55,8.58,8.58,0,0,1-4.17,1,5.8,5.8,0,0,1-2-.58,5,5,0,0,1-2-1.87,13.45,13.45,0,0,1-1.55-3.74,24.38,24.38,0,0,1-.64-6.19,19.85,19.85,0,0,1,2.08-9.72,9.07,9.07,0,0,1,5.62-4.54,9.8,9.8,0,0,1,6.48.5,13.87,13.87,0,0,1,5.76,4.61l1.37-5.33c.14-.67.77-1.14,1.87-1.4a7.77,7.77,0,0,1,3.46,0,6.52,6.52,0,0,1,3.09,1.58,3.34,3.34,0,0,1,.87,3.35,29.07,29.07,0,0,0-.65,3c-.19,1-.39,2.12-.58,3.49s-.41,2.91-.65,4.64q-.65,5.19-.75,8.82c-.07,2.43.09,4,.5,4.83s1.07.58,2-.62a37.19,37.19,0,0,0,3.67-7.56c.73-1.82,1.38-3.63,2-5.43s1.11-3.4,1.52-4.79.82-3,1.26-4.75a1.33,1.33,0,0,1,.64-.87A1.41,1.41,0,0,1,439.46,572.18Zm-26.71,14.18a33.5,33.5,0,0,0,2.67-4.46,52.07,52.07,0,0,0,2.23-5.18c-.1-.1-.15-.17-.15-.22-1.24-2.06-2.4-3.3-3.45-3.71a2.32,2.32,0,0,0-2.7.51,7.84,7.84,0,0,0-1.77,3.6,22.52,22.52,0,0,0-.64,5.65c0,1.39,0,2.63.14,3.71a5.79,5.79,0,0,0,.58,2.34.74.74,0,0,0,1.15.28A7.56,7.56,0,0,0,412.75,586.36Z"/><path class="cls-2" d="M467.11,572.54a1.25,1.25,0,0,1,.72.83,1.51,1.51,0,0,1-.14,1.11l-2,4c-1.29,2.54-2.61,5-4,7.48a48.63,48.63,0,0,1-4.32,6.63q-5.25,6.76-11.23,6.77a8.23,8.23,0,0,1-6.77-3.6,13,13,0,0,1-2.05-3.46A26,26,0,0,1,436,588a29,29,0,0,1-.54-5.94,22.87,22.87,0,0,1,.75-5.65,14.22,14.22,0,0,1,2.09-4.9,9.42,9.42,0,0,1,3.82-3.24,5.76,5.76,0,0,1,3.67-.54,6.79,6.79,0,0,1,2.45,1.12,7.67,7.67,0,0,1,2.2,2.77,18,18,0,0,1,1.11,3,16.41,16.41,0,0,1,.51,3.52,21.23,21.23,0,0,1-.15,3.53,1.67,1.67,0,0,1-.61.94,1.41,1.41,0,0,1-1.05.29,1.65,1.65,0,0,1-.93-.62,1.36,1.36,0,0,1-.29-1,18.43,18.43,0,0,0,.14-3.35,10.37,10.37,0,0,0-.46-3c-.27-.75-.62-1-1.05-.83s-.93,1.22-1.51,3.1a22.36,22.36,0,0,0-.65,7.12,28.17,28.17,0,0,0,.94,5.76,8.27,8.27,0,0,0,1.91,3.68,2.69,2.69,0,0,0,2.88.61q1.68-.54,3.92-3.42a48.8,48.8,0,0,0,4-6.27q1.9-3.52,3.92-7.41l2.09-4a1.37,1.37,0,0,1,1.94-.65Z"/><path class="cls-2" d="M492.17,572.54a1.31,1.31,0,0,1,.72.83,1.57,1.57,0,0,1-.14,1.11q-2.1,4.11-4.36,8.07a70.75,70.75,0,0,1-4.57,7.05c-.68.82-1.37,1.64-2.09,2.45a15.49,15.49,0,0,1-2.38,2.2,13.75,13.75,0,0,1-2.77,1.62,7.89,7.89,0,0,1-3.2.65,6.22,6.22,0,0,1-4.54-2.06,15.82,15.82,0,0,1-3.38-5.94,33.85,33.85,0,0,1-1.8-10.29,26.79,26.79,0,0,1,1.8-10.51A17,17,0,0,1,467,564.8a8.89,8.89,0,0,1,2-2.12,10,10,0,0,1,4.75-2.16,7.52,7.52,0,0,1,4.46.57,5.69,5.69,0,0,1,2.27,2,5.2,5.2,0,0,1,.83,2.92q0,4.17-7.85,7.63c.05,1.15.12,2.53.22,4.14s.22,3.2.39,4.79a31.74,31.74,0,0,0,.76,4.39,7,7,0,0,0,1.37,3,2,2,0,0,0,2.12.65c.84-.22,1.88-1.12,3.13-2.7a69.05,69.05,0,0,0,4.43-6.88q2.19-3.86,4.28-7.81a1.38,1.38,0,0,1,1.95-.65Zm-18-2.38a12.93,12.93,0,0,0,2.3-1.4,8.35,8.35,0,0,0,1.3-1.22,3.35,3.35,0,0,0,.57-.94,1.88,1.88,0,0,0,.15-.61,2.17,2.17,0,0,0-.11-1c-.07-.08-.3,0-.68.1C476.11,565.8,474.94,567.48,474.17,570.16Z"/><path class="cls-2" d="M494.72,339.72l-182,182a29.29,29.29,0,0,1-41.44,0L198.54,449a9.54,9.54,0,0,1,0-13.5l62.29-62.3A29.15,29.15,0,0,0,219.61,332l-62.29,62.3a9.54,9.54,0,0,1-13.5,0L89.28,339.72a29.29,29.29,0,0,1,0-41.44l182-182a29.29,29.29,0,0,1,41.44,0L330,133.53a9.54,9.54,0,0,1,0,13.5l-67.58,67.58a29.15,29.15,0,1,0,41.22,41.22l67.58-67.58a9.54,9.54,0,0,1,13.5,0l17.57,17.57a9.54,9.54,0,0,1,0,13.5l-59.87,59.86a29.15,29.15,0,0,0,41.22,41.23l59.87-59.87a9.54,9.54,0,0,1,13.5,0l37.74,37.74A29.29,29.29,0,0,1,494.72,339.72Z"/></svg>